<?xml version="1.0" encoding="iso-8859-1"?>
<!-- Generator: Adobe Illustrator 19.0.0, SVG Export Plug-In . SVG Version: 6.00 Build 0)  -->
<svg version="1.1" id="Capa_1" xmlns="http://www.w3.org/2000/svg" xmlns:xlink="http://www.w3.org/1999/xlink" x="0px" y="0px"
	 viewBox="0 0 512 512" style="enable-background:new 0 0 512 512;" xml:space="preserve">
<g>
	<g>
		<rect x="211.005" width="89.994" height="511.966"/>
	</g>
</g>
<g>
	<g>
		<path d="M502.951,384.518c-49.024-21.259-81.963-71.464-81.963-124.931L420.997,0h-90.002v289.585
			c0,49.722,15.84,96.893,45.807,136.414c28.987,38.229,70.156,66.747,115.924,80.299L511.984,512V388.435L502.951,384.518z"/>
	</g>
</g>
<g>
	<g>
		<path d="M91.002,0l0.008,259.587c0,53.467-32.938,103.673-81.963,124.932l-9.031,3.917V512l19.258-5.703
			c45.768-13.552,86.936-42.069,115.924-80.299c29.967-39.521,45.807-86.693,45.807-136.414V0H91.002z"/>
	</g>
</g>
<g>
</g>
<g>
</g>
<g>
</g>
<g>
</g>
<g>
</g>
<g>
</g>
<g>
</g>
<g>
</g>
<g>
</g>
<g>
</g>
<g>
</g>
<g>
</g>
<g>
</g>
<g>
</g>
<g>
</g>
</svg>
